# xmcd
#
# Track frame offsets: 
#        150
#        23517
#        47737
#        63757
#        80262
#        100995
#        116500
#        131532
#        156935
#        174560
#        191732
#        209562
#        228897
#        244810
#        267222
#
# Disc length: 3802 seconds
#
# Revision: 11
# Processed by: cddbd v1.5.2PL0 Copyright (c) Steve Scherf et al.
# Submitted via: ExactAudioCopy v0.95b4
#
DISCID=c40ed80f
DTITLE=Various Artist - The Orginals: Pop songs (From The 80's)
DYEAR=1988
DGENRE=Pop
TTITLE0=Spandau Ballet - I'll Fly For You
TTITLE1=Pat Benatar - Painted Desert
TTITLE2=Marillion - Kayleigh
TTITLE3=Alvin Stardust and Sheila Walsh - Speak Of Love
TTITLE4=Blondie - The Tide Is High
TTITLE5=The Stranglers - Golden Brown
TTITLE6=Gerry Rafferty - The Right Moment
TTITLE7=Thomas Dolby - I Scare Myself
TTITLE8=Kim Carnes - The Universal Song
TTITLE9=Corey Hart - I Am By Your Side
TTITLE10=David Grant - Close To You
TTITLE11=Icehouse - Hey Little Girl
TTITLE12=The Motels - Suddenly Last Summer
TTITLE13=Hall and Oates - I Can't Go For That (No Can Do)
TTITLE14=Alvin Stardust - I Feel Like Buddy Holly
EXTD=
EXTT0=Spandau Ballet
EXTT1=Pat Benatar
EXTT2=Marrillion
EXTT3=Alvin Stardust and sheila Walsh
EXTT4=Blondie
EXTT5=Stranglers
EXTT6=Gerry Rafferty
EXTT7=Thomas Dolby
EXTT8=Kim Carnes
EXTT9=Corey Hart
EXTT10=David Grant
EXTT11=Icehouse
EXTT12=Motels
EXTT13=Daryl Hall and John Oats
EXTT14=Alvin Stardust
PLAYORDER=
